<mxfile host="app.diagrams.net" modified="2023-11-10T01:41:02.662Z" agent="Mozilla/5.0 (Macintosh; Intel Mac OS X 10_15_7) AppleWebKit/537.36 (KHTML, like Gecko) Chrome/119.0.0.0 Safari/537.36" etag="v1ZaFyIOYIeJ2YN5dHvy" version="22.1.0" type="device">
  <diagram name="Page-1" id="BB3i3cBkfZNsDxti_B-u">
    <mxGraphModel dx="913" dy="796" grid="1" gridSize="10" guides="1" tooltips="1" connect="1" arrows="1" fold="1" page="1" pageScale="1" pageWidth="827" pageHeight="1169" math="0" shadow="0">
      <root>
        <mxCell id="0" />
        <mxCell id="1" parent="0" />
        <mxCell id="QmPgIX7Nhc5C3a_3XIsZ-10" value="" style="rounded=0;whiteSpace=wrap;html=1;" vertex="1" parent="1">
          <mxGeometry x="90" y="340" width="920" height="190" as="geometry" />
        </mxCell>
        <mxCell id="QmPgIX7Nhc5C3a_3XIsZ-4" value="user-service:8081" style="rounded=1;whiteSpace=wrap;html=1;" vertex="1" parent="1">
          <mxGeometry x="310" y="430" width="120" height="60" as="geometry" />
        </mxCell>
        <mxCell id="QmPgIX7Nhc5C3a_3XIsZ-5" value="post-service:8084" style="rounded=1;whiteSpace=wrap;html=1;" vertex="1" parent="1">
          <mxGeometry x="130" y="430" width="120" height="60" as="geometry" />
        </mxCell>
        <mxCell id="QmPgIX7Nhc5C3a_3XIsZ-7" value="comment-service:8082" style="rounded=1;whiteSpace=wrap;html=1;" vertex="1" parent="1">
          <mxGeometry x="670" y="430" width="120" height="60" as="geometry" />
        </mxCell>
        <mxCell id="QmPgIX7Nhc5C3a_3XIsZ-8" value="friendship-service:8083" style="rounded=1;whiteSpace=wrap;html=1;" vertex="1" parent="1">
          <mxGeometry x="850" y="430" width="120" height="60" as="geometry" />
        </mxCell>
        <mxCell id="QmPgIX7Nhc5C3a_3XIsZ-9" value="dicovery-service:8761" style="rounded=1;whiteSpace=wrap;html=1;" vertex="1" parent="1">
          <mxGeometry x="490" y="430" width="120" height="60" as="geometry" />
        </mxCell>
        <mxCell id="QmPgIX7Nhc5C3a_3XIsZ-12" value="postgresql-user-service:5432" style="rounded=1;whiteSpace=wrap;html=1;" vertex="1" parent="1">
          <mxGeometry x="310" y="610" width="120" height="60" as="geometry" />
        </mxCell>
        <mxCell id="QmPgIX7Nhc5C3a_3XIsZ-13" value="postgresql-commentr-service:5433" style="rounded=1;whiteSpace=wrap;html=1;" vertex="1" parent="1">
          <mxGeometry x="670" y="610" width="120" height="60" as="geometry" />
        </mxCell>
        <mxCell id="QmPgIX7Nhc5C3a_3XIsZ-14" value="mongodb-post-service:27016" style="rounded=1;whiteSpace=wrap;html=1;" vertex="1" parent="1">
          <mxGeometry x="130" y="610" width="120" height="60" as="geometry" />
        </mxCell>
        <mxCell id="QmPgIX7Nhc5C3a_3XIsZ-15" value="mongodb-friendship-service:27014" style="rounded=1;whiteSpace=wrap;html=1;" vertex="1" parent="1">
          <mxGeometry x="850" y="610" width="120" height="60" as="geometry" />
        </mxCell>
        <mxCell id="QmPgIX7Nhc5C3a_3XIsZ-16" value="" style="endArrow=classic;startArrow=classic;html=1;rounded=0;entryX=0.5;entryY=1;entryDx=0;entryDy=0;exitX=0.5;exitY=0;exitDx=0;exitDy=0;" edge="1" parent="1" source="QmPgIX7Nhc5C3a_3XIsZ-12" target="QmPgIX7Nhc5C3a_3XIsZ-4">
          <mxGeometry width="50" height="50" relative="1" as="geometry">
            <mxPoint x="450" y="630" as="sourcePoint" />
            <mxPoint x="500" y="580" as="targetPoint" />
          </mxGeometry>
        </mxCell>
        <mxCell id="QmPgIX7Nhc5C3a_3XIsZ-17" value="" style="endArrow=classic;startArrow=classic;html=1;rounded=0;entryX=0.5;entryY=1;entryDx=0;entryDy=0;exitX=0.5;exitY=0;exitDx=0;exitDy=0;" edge="1" parent="1" source="QmPgIX7Nhc5C3a_3XIsZ-14" target="QmPgIX7Nhc5C3a_3XIsZ-5">
          <mxGeometry width="50" height="50" relative="1" as="geometry">
            <mxPoint x="380" y="620" as="sourcePoint" />
            <mxPoint x="380" y="500" as="targetPoint" />
          </mxGeometry>
        </mxCell>
        <mxCell id="QmPgIX7Nhc5C3a_3XIsZ-18" value="" style="endArrow=classic;startArrow=classic;html=1;rounded=0;entryX=0.5;entryY=1;entryDx=0;entryDy=0;exitX=0.5;exitY=0;exitDx=0;exitDy=0;" edge="1" parent="1" source="QmPgIX7Nhc5C3a_3XIsZ-13" target="QmPgIX7Nhc5C3a_3XIsZ-7">
          <mxGeometry width="50" height="50" relative="1" as="geometry">
            <mxPoint x="560" y="620" as="sourcePoint" />
            <mxPoint x="560" y="500" as="targetPoint" />
          </mxGeometry>
        </mxCell>
        <mxCell id="QmPgIX7Nhc5C3a_3XIsZ-19" value="" style="endArrow=classic;startArrow=classic;html=1;rounded=0;entryX=0.5;entryY=1;entryDx=0;entryDy=0;exitX=0.5;exitY=0;exitDx=0;exitDy=0;" edge="1" parent="1" source="QmPgIX7Nhc5C3a_3XIsZ-15" target="QmPgIX7Nhc5C3a_3XIsZ-8">
          <mxGeometry width="50" height="50" relative="1" as="geometry">
            <mxPoint x="740" y="620" as="sourcePoint" />
            <mxPoint x="740" y="500" as="targetPoint" />
          </mxGeometry>
        </mxCell>
        <mxCell id="QmPgIX7Nhc5C3a_3XIsZ-20" value="" style="rounded=0;whiteSpace=wrap;html=1;" vertex="1" parent="1">
          <mxGeometry x="90" y="60" width="920" height="190" as="geometry" />
        </mxCell>
        <mxCell id="QmPgIX7Nhc5C3a_3XIsZ-21" value="" style="outlineConnect=0;dashed=0;verticalLabelPosition=bottom;verticalAlign=top;align=center;html=1;shape=mxgraph.aws3.management_console;fillColor=#D2D3D3;gradientColor=none;" vertex="1" parent="1">
          <mxGeometry x="138.25" y="148.5" width="63" height="63" as="geometry" />
        </mxCell>
        <mxCell id="QmPgIX7Nhc5C3a_3XIsZ-22" value="" style="outlineConnect=0;dashed=0;verticalLabelPosition=bottom;verticalAlign=top;align=center;html=1;shape=mxgraph.aws3.mobile_client;fillColor=#D2D3D3;gradientColor=none;" vertex="1" parent="1">
          <mxGeometry x="259.75" y="148.5" width="40.5" height="63" as="geometry" />
        </mxCell>
        <mxCell id="QmPgIX7Nhc5C3a_3XIsZ-24" value="" style="outlineConnect=0;dashed=0;verticalLabelPosition=bottom;verticalAlign=top;align=center;html=1;shape=mxgraph.aws3.management_console;fillColor=#D2D3D3;gradientColor=none;" vertex="1" parent="1">
          <mxGeometry x="359.75" y="148.5" width="63" height="63" as="geometry" />
        </mxCell>
        <mxCell id="QmPgIX7Nhc5C3a_3XIsZ-25" value="" style="outlineConnect=0;dashed=0;verticalLabelPosition=bottom;verticalAlign=top;align=center;html=1;shape=mxgraph.aws3.mobile_client;fillColor=#D2D3D3;gradientColor=none;" vertex="1" parent="1">
          <mxGeometry x="481.25" y="148.5" width="40.5" height="63" as="geometry" />
        </mxCell>
        <mxCell id="QmPgIX7Nhc5C3a_3XIsZ-26" value="" style="outlineConnect=0;dashed=0;verticalLabelPosition=bottom;verticalAlign=top;align=center;html=1;shape=mxgraph.aws3.management_console;fillColor=#D2D3D3;gradientColor=none;" vertex="1" parent="1">
          <mxGeometry x="579.75" y="148.5" width="63" height="63" as="geometry" />
        </mxCell>
        <mxCell id="QmPgIX7Nhc5C3a_3XIsZ-27" value="" style="outlineConnect=0;dashed=0;verticalLabelPosition=bottom;verticalAlign=top;align=center;html=1;shape=mxgraph.aws3.mobile_client;fillColor=#D2D3D3;gradientColor=none;" vertex="1" parent="1">
          <mxGeometry x="701.25" y="148.5" width="40.5" height="63" as="geometry" />
        </mxCell>
        <mxCell id="QmPgIX7Nhc5C3a_3XIsZ-28" value="" style="outlineConnect=0;dashed=0;verticalLabelPosition=bottom;verticalAlign=top;align=center;html=1;shape=mxgraph.aws3.management_console;fillColor=#D2D3D3;gradientColor=none;" vertex="1" parent="1">
          <mxGeometry x="799.75" y="148.5" width="63" height="63" as="geometry" />
        </mxCell>
        <mxCell id="QmPgIX7Nhc5C3a_3XIsZ-29" value="" style="outlineConnect=0;dashed=0;verticalLabelPosition=bottom;verticalAlign=top;align=center;html=1;shape=mxgraph.aws3.mobile_client;fillColor=#D2D3D3;gradientColor=none;" vertex="1" parent="1">
          <mxGeometry x="921.25" y="148.5" width="40.5" height="63" as="geometry" />
        </mxCell>
        <mxCell id="QmPgIX7Nhc5C3a_3XIsZ-30" value="" style="endArrow=classic;startArrow=classic;html=1;rounded=0;entryX=0.25;entryY=1;entryDx=0;entryDy=0;exitX=0.25;exitY=0;exitDx=0;exitDy=0;" edge="1" parent="1" source="QmPgIX7Nhc5C3a_3XIsZ-10" target="QmPgIX7Nhc5C3a_3XIsZ-20">
          <mxGeometry width="50" height="50" relative="1" as="geometry">
            <mxPoint x="189.44" y="450" as="sourcePoint" />
            <mxPoint x="189.44" y="330" as="targetPoint" />
          </mxGeometry>
        </mxCell>
        <mxCell id="QmPgIX7Nhc5C3a_3XIsZ-31" value="" style="endArrow=classic;startArrow=classic;html=1;rounded=0;entryX=0.5;entryY=1;entryDx=0;entryDy=0;exitX=0.5;exitY=0;exitDx=0;exitDy=0;" edge="1" parent="1" source="QmPgIX7Nhc5C3a_3XIsZ-10" target="QmPgIX7Nhc5C3a_3XIsZ-20">
          <mxGeometry width="50" height="50" relative="1" as="geometry">
            <mxPoint x="330" y="400" as="sourcePoint" />
            <mxPoint x="330" y="330" as="targetPoint" />
          </mxGeometry>
        </mxCell>
        <mxCell id="QmPgIX7Nhc5C3a_3XIsZ-32" value="" style="endArrow=classic;startArrow=classic;html=1;rounded=0;entryX=0.75;entryY=1;entryDx=0;entryDy=0;exitX=0.75;exitY=0;exitDx=0;exitDy=0;" edge="1" parent="1" source="QmPgIX7Nhc5C3a_3XIsZ-10" target="QmPgIX7Nhc5C3a_3XIsZ-20">
          <mxGeometry width="50" height="50" relative="1" as="geometry">
            <mxPoint x="560" y="400" as="sourcePoint" />
            <mxPoint x="560" y="330" as="targetPoint" />
          </mxGeometry>
        </mxCell>
        <mxCell id="QmPgIX7Nhc5C3a_3XIsZ-33" value="&lt;font size=&quot;1&quot; style=&quot;&quot;&gt;&lt;b style=&quot;font-size: 33px;&quot;&gt;Microservices&lt;/b&gt;&lt;/font&gt;" style="text;html=1;strokeColor=none;fillColor=none;align=center;verticalAlign=middle;whiteSpace=wrap;rounded=0;" vertex="1" parent="1">
          <mxGeometry x="402.5" y="350" width="295" height="50" as="geometry" />
        </mxCell>
        <mxCell id="QmPgIX7Nhc5C3a_3XIsZ-35" value="&lt;font size=&quot;1&quot; style=&quot;&quot;&gt;&lt;b style=&quot;font-size: 33px;&quot;&gt;Clients&lt;/b&gt;&lt;/font&gt;" style="text;html=1;strokeColor=none;fillColor=none;align=center;verticalAlign=middle;whiteSpace=wrap;rounded=0;" vertex="1" parent="1">
          <mxGeometry x="402.5" y="70" width="295" height="50" as="geometry" />
        </mxCell>
      </root>
    </mxGraphModel>
  </diagram>
</mxfile>
